<svg width="38px" height="40px" viewBox="0 0 82 69" version="1.1" xmlns="http://www.w3.org/2000/svg" xmlns:xlink="http://www.w3.org/1999/xlink">
    <g id="Page-1" stroke="none" stroke-width="1" fill="#FFF" fill-rule="evenodd">
        <g id="Wheel-diagram" transform="translate(-1159.000000, -741.000000)" fill="#FFF">
            <g id="icons" transform="translate(587.999900, 165.000100)">
                <path d="M650.598939,576.005356 C650.699494,575.998081 650.800049,575.998081 650.900603,576.005356 C652.140369,576.086586 653.077244,577.146221 652.995084,578.371954 L652.995084,645.159254 C652.995084,646.580183 652.038588,647.9999 650.598939,647.9999 L573.89166,647.9999 C572.439749,647.9999 571.0001,646.580183 571.0001,645.159254 L571.0001,578.371954 C571.0001,576.9583 572.439749,576.005356 573.89166,576.005356 L650.598939,576.005356 Z M634.295592,581.687859 L634.298045,581.687859 C634.244089,581.687859 634.190132,581.687859 634.13495,581.687859 C632.326192,581.731506 630.895127,583.215479 630.938047,585.004977 C630.939273,586.836908 632.440236,588.320882 634.291913,588.322094 C636.14727,588.323307 637.650685,586.839333 637.651911,585.004977 C637.654364,584.952844 637.653138,584.899498 637.651911,584.847365 C637.607765,583.057868 636.105576,581.643001 634.295592,581.687859 Z M624.225409,581.687859 C622.307512,581.687859 620.388389,583.111213 620.388389,585.004977 C620.388389,586.897528 622.297702,588.320882 624.225409,588.320882 C624.278139,588.322094 624.332095,588.322094 624.384825,588.320882 C626.194809,588.278448 627.6271,586.793262 627.582954,585.004977 C627.58418,584.952844 627.58418,584.899498 627.582954,584.847365 C627.537582,583.057868 626.035393,581.643001 624.225409,581.687859 Z M576.275542,642.790231 L647.722095,642.790231 L647.722095,594.004598 L576.275542,594.004598 L576.275542,642.790231 Z M644.364549,588.320882 C644.418505,588.322094 644.471235,588.322094 644.525191,588.320882 C646.333949,588.278448 647.765014,586.793262 647.722095,585.004977 C647.720868,583.173045 646.219906,581.689072 644.368228,581.687859 C642.512872,581.686647 641.009457,583.171833 641.00823,585.004977 C641.007004,585.05711 641.007004,585.110455 641.00823,585.162588 C641.052376,586.950874 642.554565,588.365741 644.364549,588.320882 Z M617.720578,601.9999 L609.521326,634.9999 L605.289337,634.9999 L613.476445,601.9999 L617.720578,601.9999 Z M603.331814,624.23911 L603.331814,628.828271 L587.0001,620.696343 L587.0001,616.292417 L603.331814,608.160489 L603.331814,612.758236 L591.817403,618.49806 L603.331814,624.23911 Z M636.0001,616.292417 L636.0001,620.696343 L619.664743,628.828271 L619.664743,624.23911 L631.180368,618.49806 L619.664743,612.758236 L619.664743,608.160489 L636.0001,616.292417 Z" id="app-security"></path>
            </g>
        </g>
    </g>
</svg>