<?xml version="1.0" encoding="utf-8" ?>
<svg xmlns="http://www.w3.org/2000/svg" xmlns:xlink="http://www.w3.org/1999/xlink" width="81" height="51">
	<defs>
		<clipPath id="clip_0">
			<rect x="-1247.743" y="-508.74899" width="1906.5599" height="1072.4399" clip-rule="evenodd"/>
		</clipPath>
	</defs>
	<g clip-path="url(#clip_0)">
		<path fill="#FFF" stroke="none" transform="matrix(0.993 0 0 0.993 0.614868 0.124451)" d="M48.808 5.425C57.628 5.425 64.732 11.188 64.732 18.307L64.732 19.664L64.385 22.213L66.808 22.715C71.821 23.569 75.628 27.461 75.628 32.044C75.628 35.937 72.693 39.503 68.539 40.86L68.359 41.022C62.128 43.571 51.744 45.09 40.666 45.09C24.051 45.09 12.116 41.876 8.654 38.649L8.654 38.486C6.578 36.791 5.359 34.58 5.359 32.207C5.359 27.298 9.859 23.393 15.744 23.053L18.513 23.053L18.347 20.342C18.166 20.179 18.166 20.003 18.166 19.84C18.166 16.274 21.628 13.398 25.961 13.398C27.513 13.398 28.898 13.738 30.282 14.578L32.705 15.934L34.089 13.398C36.513 8.476 42.231 5.425 48.808 5.425M48.808 0C41.193 0 34.27 3.391 30.462 8.815C29.078 8.313 27.513 8.137 25.961 8.137C19.385 8.137 13.846 12.382 12.974 18.145C5.538 19.501 0 25.264 0 32.207C0 36.112 1.732 39.842 5.012 42.554C10.039 47.301 24.051 50.352 40.666 50.352C52.436 50.352 63.512 48.82 70.436 45.945C76.666 43.734 81 38.147 81 32.044C81 25.603 76.5 20.003 70.27 17.968C70.089 8.137 60.578 0 48.808 0"/>
	</g>
</svg>