<?xml version="1.0" encoding="utf-8" ?>
<svg xmlns="http://www.w3.org/2000/svg" xmlns:xlink="http://www.w3.org/1999/xlink" width="72" height="55">
	<defs>
		<clipPath id="clip_0">
			<rect x="-581.44019" y="-507.04858" width="1901.184" height="1069.416" clip-rule="evenodd"/>
		</clipPath>
	</defs>
	<g clip-path="url(#clip_0)">
		<path fill="#FFF" stroke="none" transform="matrix(0.9902 0 0 0.9902 0.797241 0.977661)" d="M71.677 46.7641L50.503 46.7641L46.703 46.7641L46.701 46.7641C46.449 48.1591 45.097 49.2341 43.466 49.2341L28.239 49.2341C26.609 49.2341 25.256 48.1591 25.004 46.7641L25.002 46.7641L21.202 46.7641L0.029 46.7641C0.014 46.9291 -4.26326e-14 47.0941 -4.26326e-14 47.2631L-4.26326e-14 47.5761C-4.26326e-14 51.1551 3.282 54.0821 7.294 54.0821L18.376 54.0821L53.329 54.0821L64.411 54.0821C68.423 54.0821 71.705 51.1551 71.705 47.5761L71.705 47.2631C71.705 47.0941 71.691 46.9291 71.677 46.7641"/>
	</g>
	<defs>
		<clipPath id="clip_1">
			<rect x="-581.44019" y="-507.04858" width="1901.184" height="1069.416" clip-rule="evenodd"/>
		</clipPath>
	</defs>
	<g clip-path="url(#clip_1)">
		<path fill="#FFF" stroke="none" transform="matrix(0.9902 0 0 0.9902 5.90198 0.977661)" d="M1.158 0L60.238 0C60.876 0 61.395 0.579 61.395 1.291L61.395 42.9C61.395 43.609 60.879 44.185 60.243 44.189L1.152 44.189C0.516 44.185 0 43.609 0 42.9L0 1.291C0 0.579 0.519 0 1.158 0ZM45.347 38.767L56.637 38.767L56.637 5.14L4.758 5.14L4.758 38.767L45.347 38.767Z" fill-rule="evenodd"/>
	</g>

</svg>