<svg xmlns="http://www.w3.org/2000/svg" xmlns:xlink="http://www.w3.org/1999/xlink" width="59" height="37">
	<defs>
		<clipPath id="clip_0">
			<rect x="-1143.98" y="-278.14001" width="1881.6001" height="1058.4" clip-rule="evenodd"/>
		</clipPath>
	</defs>
	<g clip-path="url(#clip_0)">
		<path fill="#FFF" stroke="none" transform="matrix(0.98 0 0 0.98 0.233643 0.141815)" d="M42.6843 4.2211L46.0953 4.2211C46.9427 4.2211 47.7908 4.23174 48.6389 4.24239C50.5909 4.26688 52.543 4.29137 54.4873 4.1861C56.9553 4.0521 58.7113 6.1131 58.7893 7.8481C58.8953 10.2001 57.4113 12.1801 54.9593 12.2731C52.1149 12.3806 49.2666 12.3578 46.3793 12.3347C45.1555 12.3249 43.9247 12.3151 42.6843 12.3151L42.6843 4.2211ZM46.5086 32.5427C45.2522 32.5423 43.9852 32.5419 42.7027 32.5419L42.7027 24.4359C43.6899 24.4359 44.6725 24.4351 45.6518 24.4343C48.4134 24.432 51.1481 24.4297 53.8817 24.4459C54.5257 24.4499 55.1867 24.5279 55.8087 24.6919C57.9257 25.2489 59.0577 27.0599 58.7337 29.2739C58.4557 31.1769 56.8197 32.5379 54.7817 32.5409C52.0415 32.5444 49.3013 32.5435 46.5086 32.5427ZM32.5621 18.5795C32.5621 15.4535 30.0271 12.9185 26.9011 12.9185C23.7751 12.9185 21.2411 15.4535 21.2411 18.5795C21.2411 21.7055 23.7751 24.2405 26.9011 24.2405C30.0271 24.2405 32.5621 21.7055 32.5621 18.5795" fill-rule="evenodd"/>
	</g>
	<defs>
		<clipPath id="clip_1">
			<rect x="-1143.98" y="-278.14001" width="1881.6001" height="1058.4" clip-rule="evenodd"/>
		</clipPath>
	</defs>
	<g clip-path="url(#clip_1)">
		<path fill="#FFF" stroke="none" transform="matrix(0.98 0 0 0.98 0.233643 0.141815)" d="M40.592 33.8436C40.59 35.9386 39.774 36.7356 37.648 36.7426C36.9053 36.7446 36.1635 36.7436 35.4208 36.7426L35.417 36.7426C33.447 36.7396 32.975 36.4306 32.263 34.6416C31.2498 34.6416 30.2344 34.6422 29.2177 34.6428C27.0103 34.6441 24.7961 34.6454 22.582 34.6406C17.791 34.6306 14.418 31.4406 14.11 26.6426C14.023 25.2916 13.384 24.6986 12.021 24.3756C11.409 24.2306 10.555 23.8616 10.377 23.3836C10.0022 22.3772 9.37075 22.3826 8.55245 22.3896L8.551 22.3896C6.51129 22.4069 4.47106 22.4039 2.40745 22.4009C1.60891 22.3998 0.806869 22.3986 0 22.3986L0 14.3666L3.129 14.3666C3.66442 14.3666 4.19993 14.366 4.7355 14.3654C6.03643 14.364 7.33772 14.3625 8.639 14.3696C8.66122 14.3698 8.68332 14.3699 8.7053 14.3701C9.43232 14.3758 10.0288 14.3804 10.353 13.4156C10.514 12.9356 11.368 12.5326 11.977 12.3906C13.417 12.0566 14.027 11.4856 14.111 10.0336C14.376 5.4366 17.817 2.1466 22.406 2.1236C24.4815 2.1132 26.5574 2.11379 28.6329 2.11437C29.7504 2.11469 30.8678 2.115 31.985 2.1136C32.072 2.1136 32.158 2.0926 32.342 2.0686C32.676 0.357604 33.905 -0.0843961 35.505 0.0126039C36.0016 0.0423389 36.5003 0.0348499 36.9989 0.0273613C37.2884 0.0230131 37.5779 0.0186652 37.867 0.0216039C39.715 0.0416039 40.587 0.897604 40.59 2.7446C40.5971 6.18379 40.5956 9.62297 40.5942 13.0622C40.5936 14.478 40.593 15.8938 40.593 17.3096C40.593 18.9626 40.5933 20.6156 40.5935 22.2685C40.5942 26.1271 40.5948 29.9853 40.592 33.8436ZM23.057 26.5986C23.057 26.7836 23.174 26.9536 23.359 27.0136L24.775 27.4736C25.005 27.5486 25.251 27.4236 25.325 27.1936L25.588 26.3826C26.015 26.4536 26.454 26.4916 26.901 26.4916C27.338 26.4916 27.766 26.4556 28.183 26.3876L28.439 27.1756C28.514 27.4046 28.759 27.5296 28.989 27.4556L30.406 26.9946C30.589 26.9346 30.707 26.7636 30.707 26.5806C30.707 26.5356 30.7 26.4906 30.685 26.4456L30.431 25.6616C31.222 25.2666 31.938 24.7426 32.55 24.1176L33.196 24.5866C33.39 24.7286 33.664 24.6856 33.805 24.4906L34.68 23.2856C34.737 23.2076 34.763 23.1176 34.763 23.0296C34.763 22.8946 34.701 22.7616 34.584 22.6766L33.935 22.2046C34.324 21.4526 34.595 20.6296 34.725 19.7606L35.596 19.7606C35.838 19.7606 36.033 19.5656 36.033 19.3246L36.033 17.8346C36.033 17.5946 35.838 17.3986 35.596 17.3986L34.725 17.3986C34.594 16.5226 34.319 15.6936 33.925 14.9356L34.63 14.4246C34.747 14.3386 34.809 14.2056 34.809 14.0706C34.809 13.9816 34.783 13.8926 34.726 13.8146L33.851 12.6096C33.71 12.4146 33.436 12.3716 33.242 12.5136L32.536 13.0266C31.924 12.4066 31.213 11.8876 30.425 11.4946L30.699 10.6546Q30.72 10.5871 30.72 10.5196C30.72 10.3356 30.603 10.1646 30.419 10.1046L29.003 9.6446C28.773 9.5696 28.527 9.6956 28.453 9.9246L28.177 10.7706C27.762 10.7036 27.336 10.6686 26.901 10.6686C26.456 10.6686 26.019 10.7046 25.593 10.7756L25.311 9.9056C25.237 9.6766 24.991 9.5516 24.761 9.6256L23.345 10.0856C23.161 10.1456 23.044 10.3166 23.044 10.5006C23.044 10.5456 23.05 10.5906 23.065 10.6356L23.348 11.5086C22.579 11.8956 21.881 12.4056 21.281 13.0116L20.513 12.4536C20.319 12.3116 20.046 12.3546 19.904 12.5496L19.029 13.7546C18.972 13.8326 18.946 13.9226 18.946 14.0116C18.946 14.1456 19.007 14.2786 19.126 14.3646L19.886 14.9176C19.488 15.6796 19.21 16.5156 19.077 17.3986L18.206 17.3986C17.964 17.3986 17.77 17.5946 17.77 17.8346L17.77 19.3246C17.77 19.5656 17.964 19.7606 18.206 19.7606L19.077 19.7606C19.209 20.6366 19.483 21.4656 19.877 22.2236L19.172 22.7356C19.054 22.8206 18.993 22.9536 18.993 23.0886C18.993 23.1776 19.019 23.2666 19.076 23.3446L19.951 24.5496C20.092 24.7436 20.366 24.7876 20.56 24.6456L21.266 24.1336C21.869 24.7446 22.57 25.2586 23.344 25.6486L23.079 26.4646C23.064 26.5086 23.057 26.5546 23.057 26.5986Z" fill-rule="evenodd"/>
	</g>
</svg>