<svg id="Layer_1" data-name="Layer 1" xmlns="http://www.w3.org/2000/svg" viewBox="0 0 56 52.51"><defs><style>.cls-1{fill:#ffffff;}</style></defs><title>network-access</title><path class="cls-1" d="M36,20.47l-2.52,3.35a1.08,1.08,0,0,0,.25,1.5,1.2,1.2,0,0,0,.61.2h1.06v1.89a8,8,0,0,0,16.06,0v-7l1-3A1.06,1.06,0,0,0,51.78,16l-.18,0-18.17-3.2a1.08,1.08,0,0,0-1.24.89.88.88,0,0,0,0,.17c0,1.73,1.92,5.13,3.81,6.7m2.11.78h11.2v2.12H36.46Z" transform="translate(-0.81 -12.69)"/><path class="cls-1" d="M10.21,37.54a.75.75,0,0,0,.17.14.56.56,0,0,0,.17.09h0a.66.66,0,0,0,.2.06h.43a.49.49,0,0,0,.17-.06h0l.15-.05L18,34a1.1,1.1,0,0,0,.55-.76,1,1,0,0,0-.31-.9L9.91,24a1.06,1.06,0,0,0-1.28-.17L3.58,26.71l4-8L14.8,26a1.07,1.07,0,1,0,1.61-1.41l-.1-.1L8,16.14a1.06,1.06,0,0,0-1.51,0,1.31,1.31,0,0,0-.2.28L.92,27.24a1,1,0,0,0,.2,1.22l.76.77h0Z" transform="translate(-0.81 -12.69)"/><path class="cls-1" d="M31,49.05l.09-.1L31,48.88l.07.17" transform="translate(-0.81 -12.69)"/><path class="cls-1" d="M35.88,37.31a6.36,6.36,0,0,0-5,2.44l-4,4.46-6.72-6.7c-1.58-1.57-3.52-1.9-4.93-.81a5.79,5.79,0,0,0-1.63,1.64c-1,1.74.3,3.89,1.88,5.47l8,8c1,1,2.49,2.12,3.71,2.08,0,0,1.35.4,3.39-1.56l2.58-2.45.09,0v7.35l12.87-20ZM31,49.05,31,48.88l.16.07Z" transform="translate(-0.81 -12.69)"/><path class="cls-1" d="M56.78,49.22V44.79a7.49,7.49,0,0,0-7.49-7.49h-.44L35.1,58.58H48.51V48.9a1.19,1.19,0,0,1,2.37,0v16a1.27,1.27,0,0,1-.05.34h1.74A4.28,4.28,0,0,0,56.81,61V49.24" transform="translate(-0.81 -12.69)"/><path class="cls-1" d="M48.49,60.66H33.28v.28a4.27,4.27,0,0,0,4.23,4.23h11a1.2,1.2,0,0,1,0-.33Z" transform="translate(-0.81 -12.69)"/></svg>