<?xml version="1.0" encoding="utf-8" ?>
<svg xmlns="http://www.w3.org/2000/svg" xmlns:xlink="http://www.w3.org/1999/xlink" width="54" height="71">
	<defs>
		<clipPath id="clip_0">
			<rect x="-930.02087" y="-163.43871" width="1912.1279" height="1075.572" clip-rule="evenodd"/>
		</clipPath>
	</defs>
	<g clip-path="url(#clip_0)">
		<path fill="#FFF" stroke="none" transform="matrix(0.9959 0 0 0.9959 0.696289 0.884918)" d="M33.198 4.234L47.747 4.234C50.765 4.234 53.219 6.741 53.219 9.822L53.219 64.597C53.219 67.679 50.765 70.186 47.747 70.186L5.471 70.186C2.454 70.186 0 67.679 0 64.597L0 9.822C0 6.741 2.454 4.234 5.471 4.234L20.021 4.234C21.171 1.74 23.688 0 26.61 0C29.531 0 32.048 1.74 33.198 4.234ZM26.61 2.639C27.994 2.639 29.224 3.265 30.071 4.234L23.148 4.234C23.995 3.265 25.225 2.639 26.61 2.639ZM48.381 64.597C48.381 65.012 48.098 65.347 47.747 65.347L36.321 65.347C39.692 56.893 37.988 46.889 31.145 40.044L31.141 40.041C31.141 40.041 31.139 40.039 31.138 40.037C24.023 32.922 13.491 31.357 4.838 35.282L4.838 9.822C4.838 9.408 5.122 9.072 5.471 9.072L10.658 9.072L12.366 16.329L40.854 16.329L42.561 9.072L47.747 9.072C48.098 9.072 48.381 9.408 48.381 9.822L48.381 64.597ZM37.98 12.701L38.833 9.072L14.385 9.072L15.239 12.701L37.98 12.701ZM6.009 37.692C8.545 37.958 11.343 38.87 14.198 40.366L18.356 36.208C14.221 35.438 9.905 35.943 6.009 37.692ZM22.996 46.795C20.72 44.616 18.339 42.796 15.969 41.364L20.582 36.751C23.452 37.622 26.159 39.144 28.507 41.284L22.996 46.795ZM12.703 41.861L6.913 47.651L4.838 45.576L4.838 39.638C7.182 39.718 9.892 40.48 12.703 41.861ZM24.38 48.18C26.56 50.455 28.386 52.843 29.819 55.213L34.431 50.6C33.56 47.73 32.03 45.016 29.892 42.668L24.38 48.18ZM14.527 55.264L8.298 49.035L14.508 42.825C16.911 44.21 19.336 46.012 21.611 48.18L14.527 55.264ZM5.536 49.042L4.838 48.344L4.838 49.74L5.536 49.042ZM28.358 56.674C26.972 54.271 25.163 51.839 22.996 49.564L15.911 56.648L22.147 62.885L28.358 56.674ZM6.913 50.419L13.149 56.656L6.065 63.74C5.634 63.289 5.237 62.826 4.838 62.363L4.838 52.495L6.913 50.419ZM33.489 65.173C33.224 62.637 32.305 59.832 30.81 56.977L34.967 52.82C35.737 56.955 35.238 61.277 33.489 65.173ZM7.449 65.124L14.533 58.039L20.763 64.269L19.684 65.347L7.697 65.347C7.615 65.271 7.53 65.202 7.449 65.124ZM29.314 58.472L23.525 64.262L24.61 65.347L31.458 65.347C31.22 63.239 30.505 60.896 29.314 58.472Z" fill-rule="evenodd"/>
	</g>

</svg>