<?xml version="1.0" encoding="utf-8" ?>
<svg xmlns="http://www.w3.org/2000/svg" xmlns:xlink="http://www.w3.org/1999/xlink" width="59" height="76">
	<defs>
		<clipPath id="clip_0">
			<rect x="-684.48999" y="-734.07001" width="1900.8" height="1069.2" clip-rule="evenodd"/>
		</clipPath>
	</defs>
	<g clip-path="url(#clip_0)">
		<path fill="#FFF" stroke="none" transform="matrix(0.99 0 0 0.99 0.694885 0.57843)" d="M42.7916 71.6154C45.4046 69.4324 47.7656 66.9614 49.8066 64.2694C52.2876 60.9974 54.2796 57.4714 55.7276 53.7914C58.2756 47.3114 59.2366 40.3934 58.5856 33.2284L58.5556 32.8934C58.5336 32.6514 58.5126 32.4094 58.4816 32.1674C58.4576 31.9734 58.4266 31.7814 58.3956 31.5894C58.3676 31.4084 58.3386 31.2284 58.3146 31.0484C57.8646 27.7134 56.9656 24.3414 55.6426 21.0274C54.0306 16.9924 51.8376 13.2374 49.1246 9.86842C46.3066 6.36942 42.9786 3.32542 38.9526 0.561416C38.1556 0.0144156 37.3506 -0.130584 36.4916 0.116416C35.3286 0.449416 34.6706 1.17542 34.4806 2.33642C34.2826 3.53042 34.6686 4.44842 35.6556 5.14442C35.9106 5.32442 36.1686 5.49942 36.4266 5.67442C36.7806 5.91342 37.1336 6.15242 37.4786 6.40342C40.2636 8.42542 42.7866 10.8814 44.9766 13.7034C49.2216 19.1734 51.8586 25.4054 52.8146 32.2264C53.0586 33.9604 53.1796 35.7094 53.1796 37.4584C53.1796 39.2184 53.0576 40.9774 52.8116 42.7274C51.7506 50.2774 48.7476 56.9944 43.8826 62.6904C41.5676 65.4024 38.8136 67.8164 35.6986 69.8674C34.3656 70.7454 33.9806 72.4694 34.8256 73.7904C35.2236 74.4134 35.8406 74.8444 36.5636 75.0024C37.3086 75.1654 38.0816 75.0214 38.7386 74.5974C40.1336 73.7004 41.4976 72.6964 42.7916 71.6154M42.0611 54.0051C45.3331 48.0521 46.7011 41.5421 46.1281 34.6531C45.9791 33.1861 45.8261 32.2021 45.6421 31.1771C45.1531 28.4521 44.3161 25.7741 43.1541 23.2181C40.4871 17.3521 36.3221 12.4721 30.7751 8.71212C29.9481 8.15112 29.0951 8.02212 28.1701 8.31512C27.4051 8.55712 26.8041 9.10212 26.4781 9.84812C26.1641 10.5671 26.1511 11.3681 26.4451 11.9921C26.8011 12.7481 27.4261 13.2441 28.0491 13.6691C31.2061 15.8171 33.8621 18.5391 35.9451 21.7601C37.8851 24.7591 39.2661 28.1531 40.0501 31.8501C40.4261 33.6211 40.6141 35.4591 40.6141 37.3391C40.6141 38.3011 40.5651 39.2731 40.4661 40.2541C39.8451 46.4241 37.5201 51.8761 33.5571 56.4611C31.8711 58.4111 29.8661 60.1571 27.4291 61.7991C26.4671 62.4461 25.9771 63.7341 26.2911 64.7981C26.5621 65.7181 27.1991 66.4241 28.0391 66.7351C28.8871 67.0491 29.8421 66.9251 30.6601 66.3951C35.3941 63.3251 39.2291 59.1561 42.0611 54.0051M29.7745 49.7473C32.4515 45.4363 33.6375 40.5543 33.2035 35.6253C32.9775 33.3683 32.5945 31.5703 31.9605 29.7983C30.2235 24.9453 27.1505 21.0463 22.8285 18.2083C21.5265 17.3543 19.8185 17.6843 18.9395 18.9613C18.0825 20.2043 18.4165 21.8853 19.6985 22.7873C20.7065 23.4973 22.0065 24.4733 23.1185 25.7283C26.1165 29.1143 27.6345 33.0603 27.6345 37.4683C27.6345 37.6543 27.6325 37.8433 27.6275 38.0313C27.5145 41.8913 26.2565 45.3723 23.8865 48.3813C22.7635 49.8063 21.3265 51.1063 19.4945 52.3553C18.8895 52.7683 18.5345 53.3923 18.4385 54.2103C18.3025 55.3593 18.7305 56.2273 19.7455 56.8653C20.7445 57.4923 21.7555 57.4883 22.7525 56.8543C25.6145 55.0323 27.9775 52.6423 29.7745 49.7473M18.9 36.6213C18.393 31.3463 13.722 27.6903 8.54304 28.1723C3.37904 28.6513 -0.440962 33.2523 0.0410385 38.3933C0.532038 43.6343 5.09604 47.3903 10.368 46.8943C15.172 46.4853 19.438 42.2163 18.9 36.6213"/>
	</g>

</svg>