<svg id="Layer_1" data-name="Layer 1" xmlns="http://www.w3.org/2000/svg" viewBox="0 0 53 59.96"><defs><style>.cls-1{fill:#ffffff;}</style></defs><title>security-operation</title><path class="cls-1" d="M55.77,29.63A20.22,20.22,0,0,0,52,19.37,26.4,26.4,0,0,0,40.7,10a27.8,27.8,0,0,0-14.54-1.8A21.21,21.21,0,0,0,14.65,13,23.19,23.19,0,0,0,8,23.61c-.71,2.16-1.33,4.48-.5,6.84a4.23,4.23,0,0,1-.71,4.26c-.2.28-.43.57-.65.84l-.59.78c-.19.28-.38.5-.57.74a24.83,24.83,0,0,0-1.47,2.06,4,4,0,0,0,.24,4.75,11.6,11.6,0,0,0,1.83,1.67l.65.55a13.38,13.38,0,0,0,.69,5.1l.1.34a5.94,5.94,0,0,1,.13,1.33v1.3a6.53,6.53,0,0,0,.12,1.65,6.92,6.92,0,0,0,6,5.46c1.61.26,3.18.42,4.85.59l1.73.18.07.36c.11.59.23,1.17.34,1.76a4.48,4.48,0,0,0,1.8,3,3.9,3.9,0,0,0,2.2.62,6.29,6.29,0,0,0,1.29-.14c2.59-.52,5.23-1,7.79-1.56l3.12-.61,2.5-.48c1.81-.34,3.68-.71,5.51-1.07a3.76,3.76,0,0,0,3.11-3.48,4.57,4.57,0,0,1,.07-1c.07-1.23.15-2.51.28-3.76a27.49,27.49,0,0,1,3.62-11.63c.6-1,1.38-2.34,2-3.7A21.35,21.35,0,0,0,55.77,29.63ZM10.83,50.86h0c-.55-1.83-1.06-3.55-.42-5.37a2.09,2.09,0,0,0-.1-1.87,2.58,2.58,0,0,0-2-1.06A2.73,2.73,0,0,1,7.05,42c-.37-.3-.48-.53-.11-1.05s.78-1,1.19-1.55A15.41,15.41,0,0,0,9.22,38l.07-.1c1.16-1.56,2.34-3.23,2.42-5.45a5.84,5.84,0,0,0-.23-2.08,7.63,7.63,0,0,1,.06-4.68A19.7,19.7,0,0,1,17,16.36a17.33,17.33,0,0,1,9.8-4.22,27.75,27.75,0,0,1,3.41-.21,22.83,22.83,0,0,1,8.94,1.67,23.55,23.55,0,0,1,9.67,7.9,16.69,16.69,0,0,1,3,10h0a13.21,13.21,0,0,1-1.48,6.37V38c-.6,1.19-1.23,2.42-1.91,3.58A31.94,31.94,0,0,0,44,55.29c0,.29-.06.58-.08.87-.11,1.17-.23,2.39-.24,3.6,0,.41,0,.43-.45.52l-5.3,1L34.7,62l-6.64,1.31-3.28.64a1.74,1.74,0,0,1-.39.05c0-.06,0-.18-.08-.38l-.07-.4c-.14-.78-.28-1.56-.44-2.34a2.82,2.82,0,0,0-2.7-2.58c-.94-.12-1.9-.2-2.82-.27s-1.75-.15-2.61-.25a14.8,14.8,0,0,1-2.72-.5,2.87,2.87,0,0,1-1.86-3.36A7.53,7.53,0,0,0,10.83,50.86Z" transform="translate(-2.81 -7.86)"/><path class="cls-1" d="M48.49,29.42a3.18,3.18,0,1,0-4.12,3v2.33L35.29,42.9a1,1,0,0,0-.32.71v6.88a.95.95,0,0,0,1.9,0V44L46,35.87a1,1,0,0,0,.31-.71V32.44A3.18,3.18,0,0,0,48.49,29.42Zm-1.9,0a1.28,1.28,0,1,1-1.28-1.28h0A1.29,1.29,0,0,1,46.59,29.42Z" transform="translate(-2.81 -7.86)"/><path class="cls-1" d="M34,29.13V21a3.18,3.18,0,1,0-1.89,0v7.7L29.56,31a1,1,0,0,0-.31.71v18.8a.95.95,0,0,0,1.89,0V32.11l2.54-2.28A.91.91,0,0,0,34,29.13Zm-.94-9.87A1.29,1.29,0,1,1,34.33,18h0A1.28,1.28,0,0,1,33.05,19.26Z" transform="translate(-2.81 -7.86)"/><path class="cls-1" d="M40.13,31.69V26.3a3.18,3.18,0,1,0-4-2.08,3.21,3.21,0,0,0,2.09,2.08v5l-5.8,5.22a.93.93,0,0,0-.32.71V50.49a.95.95,0,0,0,1.89,0V37.62l5.81-5.22A1,1,0,0,0,40.13,31.69Zm-1-7.12a1.29,1.29,0,1,1,1.28-1.28h0A1.28,1.28,0,0,1,39.18,24.57Z" transform="translate(-2.81 -7.86)"/><path class="cls-1" d="M24.19,31.1V23.86a3.16,3.16,0,1,0-1.9,0v7.72a1,1,0,0,0,.39.78l3.71,2.75V50.49a.95.95,0,0,0,1.89,0V34.64a.94.94,0,0,0-.38-.78Zm-1-9a1.28,1.28,0,1,1,1.28-1.28h0a1.27,1.27,0,0,1-1.26,1.28Z" transform="translate(-2.81 -7.86)"/><path class="cls-1" d="M17.24,37.07v-3a3.18,3.18,0,1,0-1.89,0v3.48a1,1,0,0,0,.38.78l7.79,5.77v6.41a1,1,0,0,0,1,.86,1,1,0,0,0,.87-.86v-6.9a1,1,0,0,0-.39-.78Zm-.95-4.77A1.28,1.28,0,1,1,17.58,31a1.27,1.27,0,0,1-1.29,1.27Z" transform="translate(-2.81 -7.86)"/></svg>